**ABCDEFGHIJKLMNOPQRSTUVWXYZabcdefghijklmnopqrstuvwxyz**************************
**PARASOLID !"#$%&'()*+,-./:;<=>?@[\]^_`{|}~0123456789**************************
**PART1;
MC=unknown;
MC_MODEL=unknown;
MC_ID=unknown;
OS=unknown;
OS_RELEASE=unknown;
FRU=Parasolid 37.0.209;
APPL=Onshape;
SITE=unknown;
USER=unknown;
FORMAT=text;
GUISE=transmit;
KEY=BTGapi::writeModels_.xmt;
FILE=BTGapi::writeModels_.xmt;
DATE=2025-08-11T06:01:35 (UTC);
**PART2;
SCH=SCH_3700209_36001;
USFLD_SIZE=0;
**PART3;
**END_OF_HEADER*****************************************************************
T51 : TRANSMIT FILE created by modeller version 370020923 SCH_3700209_36001_1300
6231 0 176 6 14 PART_XMT_BLOCK9 Part list9 n_entries0 0 1 d16 index_map_offset0
 0 1 d9 index_map82 0 20 schema_embedding_map82 0 16 mesh_offset_data206 0 7 ent
ries1005 1 T4 1 4 0 0 0 0 2 3 4 5 12 36 CCCI7 lattice222 0 CCCI4 mesh1006 0 I8 p
olyline1008 0 CCCCCCCDI5 owner1040 0 CCCI16 boundary_lattice222 0 CCCI13 boundar
y_mesh1006 0 I17 boundary_polyline1008 0 CCCA16 index_map_offset0 0 1 dA9 index_
map82 0 A17 node_id_index_map82 0 A20 schema_embedding_map82 0 A5 child12 0 A14
 lowest_node_id0 0 1 dA16 mesh_offset_data206 0 Z2 161 6 7 0 0 0 0 0 0 0 1e3 1e-
8 0 8 3 1 0 1 2 9 0 10 11 0 0 0 12 13 0 0 0 0 0 0 0 0 12 3 198 14 15 0 0 0 0 0 0
 0 1e3 1e-8 0 2 16 1 0 1 2 17 0 18 19 20 0 0 21 22 23 0 0 0 0 0 0 0 12 4 686 24
 25 0 0 0 0 0 0 0 1e3 1e-8 0 26 27 1 0 1 2 28 0 29 30 31 0 0 32 33 34 0 0 0 0 0
 0 0 12 5 245 35 36 0 0 0 0 0 0 0 1e3 1e-8 0 37 38 1 0 1 2 39 0 40 41 42 0 0 43
 44 45 0 0 0 0 0 0 0 81 255 1 35 237 46 5 47 0 0 0 48 70 11 CI9 list_type0 0 1 u
I10 notransmit0 0 1 lCCCDCCDI12 finger_index0 0 1 dI12 finger_block1012 0 CZ36 0
 4 T5 0 0 5 20 1 49 49 13 255 39 183 0 5 0 50 0 0 51 0 51 255 40 178 0 52 53 0 0
 --520417042793042e-32 -.035 .13 0 1 0 .01411215060234308 0 0 1 30 255 41 182 0
 44 54 0 0 +-.035 -.035 .23 0 1 0 29 255 42 149 0 55 56 0 .035 0 .23 19 9 CCCCCC
I5 frame230 0 CA5 owner12 0 Z43 60 0 5 51 0 57 0 V0 16 255 44 156 58 ?59 0 60 41
 0 0 5 18 255 45 54 61 62 0 63 64 ?5 81 1 61 209 65 45 0 0 66 58 67 17 255 62 0
 68 69 70 45 71 72 0 73 +18 63 49 74 70 45 75 76 ?5 29 64 56 0 45 76 77 .035 -.0
35 .23 29 76 51 0 63 78 64 .035 -.035 .13 29 77 152 0 79 64 80 -.035 0 .23 18 79
 138 81 82 83 0 77 ?5 29 80 151 0 83 77 56 -.035 0 .13 18 83 134 84 85 86 79 80
 ?5 29 56 150 0 86 80 42 .035 0 .13 18 86 130 87 88 55 83 56 ?5 81 1 87 206 65 8
6 0 0 89 74 90 17 88 0 91 92 93 86 94 95 0 96 +18 55 126 66 97 98 86 42 ?5 81 1
 66 208 65 55 0 0 74 61 99 17 97 0 100 73 96 55 101 102 0 103 +18 98 39 104 105
 75 55 106 ?5 81 1 104 203 65 98 0 0 81 84 107 17 105 0 108 59 109 98 110 111 0
 69 -18 75 44 89 110 63 98 78 ?5 29 106 41 0 98 0 78 -.035 -.035 .23 29 78 46 0
 75 106 76 -.035 -.035 .13 81 1 89 205 65 75 0 0 84 87 112 17 110 0 68 70 69 75
 105 111 0 109 +15 255 68 8 0 69 113 0 17 70 0 68 62 110 63 114 115 0 92 +17 69
 0 68 110 62 98 116 117 0 118 +16 111 24 119 ?110 115 117 120 0 0 5 17 109 0 108
 105 85 75 93 60 0 114 -15 108 161 0 85 121 0 17 85 0 108 109 59 83 82 122 0 93
 +17 93 0 91 88 114 83 109 60 0 94 +16 60 155 123 ?93 44 124 54 0 0 5 17 114 0 9
1 93 92 75 70 115 0 0 -15 91 159 0 88 125 0 17 92 0 91 114 88 63 96 124 0 71 -16
 115 29 126 ?70 72 111 127 0 0 5 81 1 126 221 65 115 0 0 128 129 130 16 72 34 13
1 ?62 132 115 133 0 0 5 31 255 127 31 0 115 120 133 0 +-693889390390723e-32 -.03
5 .13 0 -1 0 0 0 -1 .035 30 120 26 0 111 134 127 0 +-.035 -.035 .18 0 0 -1 30 13
3 36 0 72 127 135 0 +.035 -.035 .18 0 0 1 31 135 148 0 136 133 137 0 +-520417042
793042e-32 0 .13 0 -1 0 0 0 -1 .01411215060234308 16 136 122 138 ?139 140 0 135
 0 0 5 31 137 147 0 140 135 141 0 +0 0 .23 0 -1 0 0 0 -1 .0125 16 140 118 142 ?1
43 144 136 137 0 0 5 31 141 146 0 144 137 145 0 +-693889390390723e-32 0 .23 0 -1
 0 0 0 -1 .035 16 144 114 146 ?147 122 140 141 0 0 5 30 145 145 0 122 141 148 0
 +-.035 0 .18 0 0 -1 16 122 110 149 ?85 95 144 145 0 0 5 31 148 144 0 95 145 150
 0 +-693889390390723e-32 0 .13 0 -1 0 0 0 -1 .035 16 95 106 128 ?88 102 122 148
 0 0 5 30 150 143 0 102 148 151 0 +.035 0 .18 0 0 1 16 102 102 129 ?97 152 95 15
0 0 0 5 30 151 179 0 132 150 153 0 +.035 -.035 .23 0 1 0 16 132 153 154 ?103 124
 72 151 0 0 5 30 153 180 0 124 151 54 0 +.035 -.035 .13 0 1 0 16 124 154 155 ?96
 60 132 153 0 0 5 30 54 181 0 60 153 41 0 +-.035 -.035 .13 0 1 0 81 1 155 212 65
 124 0 0 123 154 156 17 96 0 100 97 71 86 92 124 0 101 +15 100 157 0 97 157 0 17
 71 0 100 96 73 63 62 72 0 0 -17 101 0 158 94 159 86 97 102 0 0 -15 158 101 0 15
9 160 0 17 94 0 158 82 101 83 88 95 0 0 -17 159 0 158 101 82 55 147 144 0 0 -17
 82 0 158 159 94 79 85 122 0 59 -17 147 0 161 118 103 79 159 144 0 0 +15 161 163
 0 147 50 0 17 118 0 161 116 147 98 59 44 0 0 -17 103 0 161 147 116 55 73 132 0
 159 +17 116 0 161 103 118 45 69 117 0 0 -17 73 0 100 71 97 45 103 132 0 116 -16
 117 19 162 ?69 111 163 134 0 0 5 81 1 162 225 65 117 0 0 146 164 165 16 163 14
 166 ?167 117 152 168 0 0 5 31 134 21 0 117 168 120 0 +-693889390390723e-32 -.03
5 .23 0 -1 0 0 0 -1 .035 31 168 16 0 163 169 134 0 +0 -.035 .23 0 -1 0 0 0 -1 .0
125 31 169 11 0 152 0 168 0 +-520417042793042e-32 -.035 .13 0 -1 0 0 0 -1 .01411
215060234308 16 152 9 170 ?171 163 102 169 0 0 5 81 1 170 217 65 152 0 0 138 149
 172 17 171 0 173 171 171 0 174 152 0 0 +15 173 169 0 171 52 175 17 174 0 176 17
4 174 0 171 152 0 0 -15 176 6 0 174 113 177 14 255 113 1 178 ?160 157 176 39 179
 +0 0 160 157 57 15 177 7 0 180 113 68 17 180 0 177 180 180 0 167 163 0 0 -17 16
7 0 181 167 167 0 180 163 0 0 +15 181 165 0 167 182 183 14 182 166 184 ?52 125 1
81 39 53 +0 0 52 125 57 15 183 167 0 185 182 0 17 185 0 183 185 185 0 143 140 0
 0 -17 143 0 186 143 143 0 185 140 0 0 +15 186 100 0 143 160 158 14 160 90 187 ?
0 113 188 39 189 -0 0 0 113 57 81 1 187 245 190 160 191 0 178 0 192 15 188 99 0
 139 160 186 50 255 189 142 0 160 179 193 0 +-.0125 0 .2 0 -1 0 1 0 0 13 57 61 0
 0 0 0 0 0 43 50 14 50 164 194 ?121 0 161 39 195 -0 0 121 0 57 81 1 194 238 190
 50 196 0 0 197 198 14 121 162 197 ?125 50 108 39 199 -0 0 125 50 57 51 195 176
 0 50 199 53 0 --693889390390723e-32 -.035 .23 0 1 0 .035 0 0 1 50 199 175 0 121
 200 195 0 +-.035 -.035 .18 1 0 0 0 0 -1 51 53 177 0 182 195 40 0 -0 -.035 .23 0
 1 0 .0125 0 0 1 51 200 174 0 125 193 199 0 --693889390390723e-32 -.035 .13 0 1
 0 .035 0 0 1 14 125 160 201 ?182 121 91 39 200 -0 0 182 121 57 50 193 173 0 157
 189 200 0 +.035 -.035 .18 -1 0 0 0 0 1 14 157 158 202 ?113 52 100 39 193 -0 0 1
13 52 57 81 1 202 243 190 157 203 0 204 178 205 14 52 170 204 ?157 182 173 39 40
 +0 0 157 182 57 81 1 204 242 190 52 206 0 184 202 207 80 7 CCCCCDI12 legal_owne
rs0 17 1 lCZ1 190 0 208 8001 0 0 0 0 3 5 0 0 0 FFFFTFTFFFFFFFFFF2 81 1 206 229 6
5 52 0 204 209 210 211 81 1 184 241 190 182 164 0 201 204 212 83 255 3 207 .2313
72549019608 .380392156862745 .705882352941177 81 1 164 226 65 182 0 184 162 191
 213 81 1 201 240 190 125 214 0 197 184 215 83 3 212 .231372549019608 .380392156
862745 .705882352941177 81 1 214 231 65 125 0 201 210 203 216 81 1 197 239 190 1
21 210 0 194 201 217 83 3 215 .231372549019608 .380392156862745 .705882352941177
 81 1 210 230 65 121 0 197 206 214 218 83 3 217 .231372549019608 .38039215686274
5 .705882352941177 80 1 65 219 220 9000 0 0 0 0 3 6 0 0 0 FFTFTFTTFFFFFFFFF1 82
 255 3 218 14 4 2 79 255 9 220 BTI/DetId81 1 203 232 65 157 0 202 214 196 221 82
 3 216 14 5 2 81 1 196 233 65 50 0 194 203 222 223 82 3 221 14 6 2 81 1 222 234
 65 5 0 224 196 0 225 82 3 223 14 7 2 81 1 224 235 226 5 222 47 0 0 227 82 3 225
 14 0 3 80 1 226 228 229 8038 0 0 0 0 0 0 0 0 0 TTTTTTTTTTTTTFTFT10 81 1 47 236
 228 5 224 35 0 0 230 98 255 6 227 80 97 114 116 32 51 80 1 228 231 232 8017 0 0
 0 0 0 0 0 0 0 TTTTTTTTTTTTTFTFT3 84 255 6 230 Part 379 13 232 SDL/TYSA_NAME79 1
4 229 SDL/TYSA_UNAME81 1 191 227 65 160 0 187 164 209 233 82 3 213 14 0 2 81 1 2
09 228 65 113 0 178 191 206 234 82 3 233 14 1 2 81 1 178 244 190 113 209 0 202 1
87 235 82 3 234 14 2 2 83 3 235 .231372549019608 .380392156862745 .7058823529411
77 82 3 211 14 3 2 79 15 208 SDL/TYSA_COLOUR83 3 205 .231372549019608 .380392156
862745 .705882352941177 83 3 198 .231372549019608 .380392156862745 .705882352941
177 50 179 3 0 113 0 189 0 +-.0125 -.035 .2 0 -1 0 1 0 0 17 139 0 188 139 139 0
 236 136 0 0 +17 236 0 175 236 236 0 139 136 0 0 -15 175 171 0 236 52 0 83 3 192
 .231372549019608 .380392156862745 .705882352941177 81 1 138 216 65 136 0 0 166
 170 237 81 1 149 218 65 122 0 0 170 119 238 82 3 172 14 7 1 81 1 119 219 65 111
 0 0 149 128 239 82 3 238 14 8 1 81 1 128 220 65 95 0 0 119 126 240 82 3 239 14
 9 1 82 3 240 14 10 1 81 1 166 215 65 163 0 0 142 138 241 82 3 237 14 6 1 81 1 1
42 214 65 140 0 0 154 166 242 82 3 241 14 5 1 81 1 154 213 65 132 0 0 155 142 24
3 82 3 242 14 4 1 82 3 243 14 3 1 81 1 146 224 65 144 0 0 131 162 244 82 3 165 1
4 15 1 81 1 131 223 65 72 0 0 129 146 245 82 3 244 14 14 1 81 1 129 222 65 102 0
 0 126 131 246 82 3 245 14 13 1 82 3 246 14 12 1 17 59 0 108 85 105 79 118 44 0
 147 +81 1 123 211 65 60 0 0 58 155 247 82 3 156 14 2 1 81 1 58 210 65 44 0 0 61
 123 248 82 3 247 14 1 1 82 3 248 14 0 1 82 3 130 14 11 1 81 1 84 204 65 83 0 0
 104 89 249 82 3 112 14 3 0 82 3 249 14 2 0 81 1 81 202 65 79 0 0 0 104 250 82 3
 107 14 1 0 82 3 250 14 0 0 81 1 74 207 65 63 0 0 87 66 251 82 3 99 14 6 0 82 3
 251 14 5 0 82 3 90 14 4 0 82 3 67 14 7 0 19 51 184 0 5 0 43 39 0 S0 74 4 CI16 i
ndex_map_offset0 0 1 dCCZ20 49 5 0 0 222 224 47 35 187 0 0 0 0 0 0 0 0 0 0 0 0 0
 0 0 80 1 46 190 252 8040 0 0 0 0 3 5 0 0 0 TTTFFFFFFFFFFFFFF2 83 3 48 .23137254
9019608 .380392156862745 .705882352941177 79 17 252 SDL/TYSA_COLOUR_281 1 24 676
 46 4 253 0 0 0 254 70 25 0 4 T4 0 0 5 20 1 255 255 13 28 89 0 4 0 256 0 0 257 0
 50 29 216 0 256 258 0 0 +-.0325 .02 .23 0 0 1 1 0 0 30 30 343 0 33 259 0 0 +-.0
025 0 .28 -1 0 0 29 31 331 0 34 260 0 .015 0 .31 19 32 88 0 4 257 0 261 0 V0 16
 33 341 262 ?263 0 264 30 0 0 4 18 34 327 265 266 0 267 31 ?4 81 1 265 657 65 34
 0 0 268 269 270 17 266 0 271 272 273 34 274 275 0 276 +18 267 72 277 278 34 279
 280 ?4 81 1 277 244 65 267 0 0 281 282 283 17 278 0 284 285 286 267 287 288 0 2
89 -18 279 67 290 291 267 292 293 ?4 29 280 74 0 267 293 294 -.035 .02 .23 29 29
3 69 0 279 295 280 -.035 .02 .31 29 294 191 0 296 280 297 -.03 0 .23 18 296 176
 298 299 300 301 294 ?4 29 297 190 0 300 294 302 .03 0 .23 18 300 172 303 304 30
5 296 297 ?4 29 302 189 0 305 297 306 .03 0 .31 18 305 168 307 272 308 300 302 ?
4 29 306 188 0 308 302 260 -.035 0 .31 18 308 164 282 309 310 305 306 ?4 29 260
 187 0 310 306 31 -.035 0 .23 18 310 160 281 287 311 308 260 ?4 81 1 281 243 65
 310 0 0 0 277 312 17 287 0 313 309 289 310 278 288 0 314 +18 311 52 315 316 317
 310 318 ?4 81 1 315 252 65 311 0 0 298 319 320 17 316 0 321 322 323 311 299 264
 0 324 -18 317 57 325 326 292 311 327 ?4 29 318 54 0 311 328 327 -.03 .02 .23 29
 328 610 0 329 330 318 -.015 0 .31 29 327 59 0 317 318 295 .03 .02 .23 29 295 64
 0 292 327 293 .03 .02 .31 18 292 62 331 332 279 317 295 ?4 81 1 331 248 65 292
 0 0 307 303 333 17 332 0 271 334 272 292 335 336 0 337 -15 271 205 0 273 338 0
 17 334 0 271 339 332 279 340 341 0 0 -17 272 0 271 332 266 305 342 343 0 335 +1
7 335 0 344 304 337 305 332 336 0 345 +16 336 194 346 ?335 347 348 349 0 0 4 17
 337 0 344 335 350 292 326 351 0 340 -15 344 207 0 350 352 0 17 350 0 344 337 30
4 317 353 347 0 322 -17 326 0 354 324 340 317 337 351 0 350 +16 351 22 355 ?326
 341 356 357 0 0 4 17 340 0 354 326 291 292 334 341 0 0 +15 354 6 0 291 358 359
 17 291 0 354 340 360 279 289 361 0 362 +16 341 27 363 ?340 361 351 364 0 0 4 81
 1 363 265 65 341 0 0 365 366 367 16 361 32 368 ?291 369 341 370 0 0 4 30 364 29
 0 341 357 370 0 +-.0025 .02 .31 1 0 0 30 357 24 0 351 371 364 0 +.03 .02 .27 86
7361737988404e-31 0 -1 30 370 34 0 361 364 372 0 +-.035 .02 .27 0 0 1 31 372 39
 0 369 370 373 0 +0 .02 .23 0 -1 0 0 0 -1 .03 16 369 37 374 ?322 375 361 372 0 0
 4 31 373 44 0 375 372 376 0 +0 .02 .23 0 -1 0 0 0 -1 .0125 16 375 42 377 ?378 2
88 369 373 0 0 4 30 376 186 0 379 373 380 0 +-.0325 0 .23 -1 0 0 16 379 156 381
 ?286 382 383 376 0 0 4 30 380 185 0 382 376 384 0 +.03 0 .27 867361737988404e-3
1 0 -1 16 382 152 385 ?304 343 379 380 0 0 4 30 384 184 0 386 380 387 0 +-.0025
 0 .31 1 0 0 16 386 148 388 ?273 389 343 384 343 343 4 30 387 183 0 389 384 390
 0 +-.035 0 .27 0 0 1 16 389 144 391 ?309 392 386 387 0 0 4 31 390 182 0 392 387
 393 0 +0 0 .23 0 -1 0 0 0 -1 .03 16 392 140 394 ?395 396 389 390 0 0 4 31 393 1
81 0 396 390 397 0 +0 0 .23 0 -1 0 0 0 -1 .0125 16 396 134 366 ?398 356 392 393
 0 0 4 30 397 217 0 288 393 399 0 +-.035 .02 .23 0 -1 0 16 288 192 319 ?287 348
 375 397 0 0 4 30 399 218 0 348 397 349 0 +-.035 .02 .31 0 -1 0 16 348 193 400 ?
339 336 288 399 0 0 4 30 349 219 0 336 399 401 0 +.03 .02 .31 0 -1 0 30 401 220
 0 347 349 259 0 +.03 .02 .23 0 -1 0 16 347 195 402 ?353 264 336 401 0 0 4 30 25
9 221 0 264 401 30 0 +-.03 .02 .23 0 -1 0 16 264 196 403 ?299 33 347 259 0 0 4 8
1 1 403 257 65 264 0 0 402 394 404 17 299 0 284 286 285 296 316 264 0 323 +15 28
4 209 0 286 256 0 17 286 0 284 278 299 310 405 379 0 0 +17 285 0 284 299 278 311
 360 356 0 0 -17 323 0 321 316 353 296 395 392 0 405 -15 321 201 0 323 406 0 17
 353 0 321 323 322 300 350 347 0 395 +17 395 0 407 345 405 300 323 392 0 0 +17 4
05 0 407 395 314 296 286 379 0 0 -15 407 351 0 263 408 409 17 314 0 407 405 410
 310 309 389 0 286 -17 410 0 407 314 411 308 273 386 0 0 -17 309 0 313 362 287 3
08 314 389 0 339 +15 313 203 0 362 412 0 17 362 0 313 289 309 279 339 348 0 334
 -17 339 0 271 273 334 308 362 348 0 410 +17 273 0 271 266 339 329 410 386 0 0 +
18 329 537 413 274 414 0 328 ?4 81 1 413 655 65 329 0 0 415 268 416 17 274 0 417
 418 276 329 266 275 0 411 -18 414 515 268 418 301 329 419 ?4 81 1 268 656 65 41
4 0 0 413 265 420 17 418 0 417 421 274 414 411 422 0 423 -18 301 535 269 424 296
 414 330 ?4 29 419 616 0 414 0 330 -.015 0 .28 29 330 615 0 301 419 328 .015 0 .
28 81 1 269 658 65 301 0 0 265 262 425 17 424 0 426 423 423 301 263 33 0 421 -15
 426 574 0 424 427 0 17 423 0 426 424 424 414 421 428 0 263 -17 263 0 407 411 42
9 414 424 33 0 0 +17 421 0 417 276 418 301 423 428 0 429 +15 417 550 0 274 430 0
 17 276 0 417 274 421 34 429 383 0 342 +16 428 451 431 ?421 422 275 432 0 0 4 17
 429 0 407 263 342 301 276 383 0 0 -17 342 0 407 429 345 34 272 343 0 0 -16 383
 454 433 ?276 379 422 434 0 0 4 81 1 433 671 65 383 0 0 435 388 436 16 422 504 4
35 ?411 383 428 437 0 0 4 30 434 590 0 383 438 437 0 +.015 0 .28 0 0 1 31 438 59
8 0 275 432 434 0 +0 918485099360515e-33 .31 0 0 1 1 0 0 .015 30 437 589 0 422 4
34 371 0 +-.015 0 .28 0 0 1 30 371 14 0 356 437 357 0 +-.0325 .02 .23 -1 0 0 16
 356 12 365 ?360 351 396 371 0 0 4 81 1 365 261 65 356 0 0 381 363 439 17 360 0
 354 291 324 267 285 356 0 0 +17 324 0 354 360 326 311 322 369 0 285 -17 322 0 3
21 353 316 317 324 369 0 0 +81 1 381 260 65 379 0 0 374 365 440 82 3 439 17 8 1
 81 1 374 259 65 369 0 0 394 381 441 82 3 440 17 7 1 81 1 394 258 65 392 0 0 403
 374 442 82 3 441 17 6 1 82 3 442 17 5 1 16 275 509 443 ?266 428 0 438 0 0 4 31
 432 603 0 428 0 438 0 +0 918485099360515e-33 .28 0 0 1 1 0 0 .015 81 1 443 511
 65 275 0 0 431 444 445 81 1 431 453 65 428 0 0 446 443 447 81 1 444 549 65 430
 0 448 443 415 449 82 3 445 20 6 1 14 430 547 448 ?427 408 417 28 450 +0 0 427 4
08 261 81 1 448 685 190 430 444 0 451 452 453 81 1 415 654 65 4 0 454 444 413 45
5 82 3 449 20 0 2 81 1 454 674 226 4 415 253 0 0 456 82 3 455 17 0 3 81 1 253 67
5 228 4 454 24 0 0 457 98 6 456 80 97 114 116 32 52 84 6 457 Part 481 1 451 684
 190 408 458 0 459 448 460 81 1 452 686 190 427 461 0 448 0 462 83 3 453 .917647
058823529 .917647058823529 .917647058823529 14 427 571 452 ?0 430 426 28 463 -0
 0 0 430 261 81 1 461 669 65 427 0 452 464 435 465 83 3 462 .917647058823529 .91
7647058823529 .917647058823529 81 1 464 668 65 352 0 466 467 461 468 81 1 435 67
0 65 422 0 0 461 433 469 82 3 465 21 5 2 82 3 469 21 5 1 14 352 208 466 ?338 406
 344 28 258 -0 0 338 406 261 81 1 466 679 190 352 464 0 470 471 472 81 1 467 667
 65 412 0 473 474 464 475 82 3 468 21 4 2 14 412 204 473 ?476 338 313 28 477 -0
 0 476 338 261 81 1 473 681 190 412 467 0 471 478 479 81 1 474 666 65 358 0 459
 458 467 480 82 3 475 21 3 2 14 358 1 459 ?408 476 354 28 481 -0 0 408 476 261 8
1 1 459 683 190 358 474 0 478 451 482 81 1 458 665 65 408 0 451 483 474 484 82 3
 480 21 2 2 14 408 121 451 ?430 358 407 28 485 +0 0 430 358 261 81 1 483 664 65
 338 0 471 355 458 486 82 3 484 21 1 2 14 338 206 471 ?412 352 271 28 487 -0 0 4
12 352 261 81 1 471 680 190 338 483 0 466 473 488 81 1 355 663 65 351 0 0 385 48
3 489 82 3 486 21 0 2 81 1 385 662 65 382 0 0 368 355 490 82 3 489 21 4 1 81 1 3
68 661 65 361 0 0 391 385 491 82 3 490 21 3 1 81 1 391 660 65 389 0 0 262 368 49
2 82 3 491 21 2 1 81 1 262 659 65 33 0 0 269 391 493 82 3 492 21 1 1 82 3 493 21
 0 1 83 3 488 .917647058823529 .917647058823529 .917647058823529 50 487 214 0 33
8 477 258 0 +-.0025 .02 .31 0 0 -1 -1 0 0 13 261 222 0 0 0 0 0 0 32 256 14 256 2
10 494 ?406 0 284 28 29 -0 0 406 0 261 81 1 494 677 190 256 495 0 0 470 496 14 4
06 202 470 ?352 256 321 28 497 +0 0 352 256 261 81 1 470 678 190 406 498 0 494 4
66 499 51 497 212 0 406 500 477 0 +0 .02 .23 0 -1 0 .03 0 0 -1 51 500 211 0 476
 485 497 0 +0 .02 .23 0 -1 0 .0125 0 0 -1 50 477 213 0 412 497 487 0 +-.035 .02
 .27 1 0 0 0 0 -1 14 476 198 478 ?358 412 501 28 500 -0 0 358 412 261 50 485 180
 0 408 481 500 0 +-.0025 0 .255 0 -1 0 1 0 0 50 481 3 0 358 450 485 0 +-.0025 .0
2 .255 0 -1 0 1 0 0 51 450 581 0 430 463 481 0 +0 918485099360515e-33 .28 0 0 1
 .015 1 0 0 50 463 587 0 427 0 450 0 +-.0025 .0025 .28 0 0 1 1 0 0 81 1 478 682
 190 476 446 0 473 459 502 15 501 197 0 503 476 504 17 503 0 501 503 503 0 378 3
75 0 0 -15 504 199 0 398 476 0 17 398 0 504 398 398 0 505 396 0 0 +17 505 0 409
 505 505 0 398 396 0 0 -15 409 133 0 505 408 0 17 378 0 359 378 378 0 503 375 0
 0 +15 359 11 0 378 358 0 81 1 446 277 65 476 0 478 495 431 506 83 3 502 .917647
058823529 .917647058823529 .917647058823529 81 1 495 273 65 256 0 494 498 446 50
7 82 3 506 17 7 2 81 1 498 270 65 406 0 470 377 495 508 82 3 507 17 3 2 81 1 377
 269 65 375 0 0 366 498 509 82 3 508 17 0 2 81 1 366 268 65 396 0 0 363 377 510
 82 3 509 17 16 1 82 3 510 17 15 1 83 3 499 .917647058823529 .917647058823529 .9
17647058823529 83 3 496 .917647058823529 .917647058823529 .917647058823529 50 25
8 215 0 352 487 29 0 +.03 .02 .27 -1 0 -867361737988404e-31 -867361737988404e-31
 0 1 83 3 482 .917647058823529 .917647058823529 .917647058823529 83 3 479 .91764
7058823529 .917647058823529 .917647058823529 83 3 472 .917647058823529 .91764705
8823529 .917647058823529 83 3 460 .917647058823529 .917647058823529 .91764705882
3529 82 3 447 20 7 1 17 411 0 407 410 263 329 418 422 0 273 +81 1 388 672 65 386
 0 0 433 511 512 82 3 436 21 6 1 81 1 511 673 65 343 0 0 388 0 513 82 3 512 21 7
 1 16 343 328 511 ?272 386 382 384 386 386 4 82 3 513 21 8 1 17 345 0 407 342 39
5 305 304 382 0 0 -17 304 0 344 350 335 300 345 382 0 353 +82 3 425 21 3 0 82 3
 420 21 1 0 82 3 416 21 0 0 17 289 0 313 287 362 267 291 361 0 360 -81 1 402 256
 65 347 0 0 346 403 514 82 3 404 17 4 1 81 1 346 255 65 336 0 0 400 402 515 82 3
 514 17 3 1 81 1 400 254 65 348 0 0 319 346 516 82 3 515 17 2 1 81 1 319 253 65
 288 0 0 315 400 517 82 3 516 17 1 1 82 3 517 17 0 1 82 3 367 17 12 1 81 1 307 2
47 65 305 0 0 290 331 518 81 1 303 249 65 300 0 0 331 325 519 82 3 333 17 5 0 81
 1 325 250 65 317 0 0 303 298 520 82 3 519 17 6 0 81 1 298 251 65 296 0 0 325 31
5 521 82 3 520 17 7 0 82 3 521 17 8 0 81 1 290 246 65 279 0 0 282 307 522 82 3 5
18 17 4 0 81 1 282 245 65 308 0 0 277 290 523 82 3 522 17 3 0 82 3 523 17 2 0 82
 3 320 17 9 0 82 3 312 17 0 0 82 3 283 17 1 0 82 3 270 21 2 0 19 257 223 0 4 0 3
2 28 0 S0 74 20 255 5 0 0 511 454 253 24 452 0 0 0 0 0 0 0 0 0 0 0 0 0 0 0 83 3
 254 .917647058823529 .917647058823529 .917647058823529 81 1 14 191 46 3 524 0 0
 0 525 70 15 0 4 T3 0 0 5 20 1 526 526 13 17 5 0 3 0 527 0 0 528 0 51 18 26 0 52
9 530 0 531 -0 0 .150002 0 0 -1 .05 -1 0 0 38 12 CCCCCCCCCCCA17 intersection_dat
a204 0 Z19 62 0 532 533 0 0 +18 534 535 536 536 537 29 20 47 0 23 538 0 .05 0 .0
907864035883649 19 21 1 0 3 528 0 539 0 V0 16 22 53 540 ?541 0 542 533 0 0 3 18
 23 45 543 544 0 545 20 ?3 81 1 543 186 65 23 0 0 546 540 547 17 544 0 548 549 5
41 23 550 551 0 552 +18 545 113 553 554 23 555 538 ?3 81 1 553 183 65 545 0 0 55
6 557 558 17 554 0 548 541 549 545 559 560 0 561 -18 555 114 557 549 545 562 563
 ?3 29 538 160 0 545 563 20 -.05 0 .15 29 563 161 0 555 564 538 .05 0 .15 29 564
 162 0 562 0 563 -.05 0 .0907864035883649 18 562 112 546 541 555 0 564 ?3 81 1 5
46 185 65 562 0 0 557 543 565 17 541 0 548 544 554 562 561 22 0 550 +15 548 129
 0 541 566 0 17 561 0 567 568 569 545 541 22 0 570 -17 550 0 571 552 552 562 544
 551 0 569 -15 571 124 0 552 572 0 17 552 0 571 550 550 23 569 542 0 573 +16 551
 97 574 ?544 560 575 576 0 0 3 17 569 0 567 561 573 562 552 542 0 0 -15 567 54 0
 561 577 0 17 573 0 567 569 568 23 549 578 0 0 -16 542 50 579 ?552 22 578 580 0
 0 3 81 1 579 171 65 542 0 0 581 582 583 16 578 46 584 ?549 542 585 586 0 0 3 38
 580 52 0 542 586 533 0 +18 587 588 589 590 591 30 586 48 0 578 592 580 0 -.05 0
 .150002 0 0 -1 30 533 55 0 22 580 19 0 +-.05 0 .150002 0 0 -1 51 587 152 0 572
 593 534 594 -0 -.3003119313957205 .15 0 1 0 .0775 0 0 1 40 255 11 588 0 1 11 .0
03694960320860985 .3942166358817885 ??-.05 0 .0907864035883649 -.047862211636001
8 -.01446404844124134 .0890454374364759 -.0419666456618361 -.0271808876215236 .0
848459467730986 -.03142603920672105 -.0388896394914845 .0791575405580973 -.01540
705291333105 -.0475670339681362 .0740469044704179 .001225225634050734 -.04998498
59672448 .0725096856236493 .01541833088582675 -.0475633795339982 .07404919307410
12 .02800908900117215 -.0414184854059684 .0777383854780118 .03929683834920285 -.
03091534401808625 .0832017328386685 .0476313093306673 -.0152071815747127 .088864
8352300717 .05 690180984608283e-32 .0907864035883649 41 3 CI8 term_use0 0 1 cCZ1
 589 L?-.05 0 .0907864035883649 41 1 590 L?.05 690180984608283e-32 .090786403588
3649 204 2 17 INTERSECTION_DATA17 Intersection data7 uv_type0 0 1 u6 values0 1 1
 fT44 591 4 0 .0592155964116351 3.84282701817286 .3003119313957205 5.98970970181
843 .0609565625635241 3.80725082394016 .285847882954479 5.70844391306758 .065156
0532269014 3.713819038407585 .273131043774197 5.39203891491164 .0708444594419027
 3.559115431438015 .261422291904236 5.02562736965278 .0759550955295821 3.3417266
7891551 .2527448974275845 4.68788201466533 .0774923143763507 3.125782631940985 .
2503269454284755 4.398913485610005 .0759528069258988 2.941310140012065 .25274855
1861722 4.117783753553715 .0722636145219882 2.771815561314845 .258893445989752 3
.808179256958195 .0668002671613315 2.609826990842615 .269396587377634 3.45063199
8252375 .0611371647699283 2.479716980507275 .285104749821008 3.141592653589795 .
0592155964116351 2.440358289006725 .3003119313957205 14 572 135 595 ?566 596 571
 17 587 +0 0 566 596 539 50 593 153 0 566 0 587 0 +0 0 .15 0 -1 0 1 0 0 51 534 1
51 0 596 587 597 598 --520417042793042e-32 -.3003119313957205 .13 0 1 0 .0141121
5060234308 0 0 1 141 255 594 580 594 594 587 14 596 130 599 ?572 600 601 17 534
 -0 0 572 600 539 50 597 23 0 600 534 530 0 +-.025 0 .03 0 0 -1 -1 0 0 141 598 1
9 598 598 534 14 600 13 602 ?596 577 603 17 597 +0 0 596 577 539 50 530 25 0 527
 597 18 0 +0 0 .15 0 0 1 1 0 0 14 527 6 604 ?577 0 605 17 530 +0 0 577 0 539 81
 1 604 192 190 527 606 0 0 607 608 14 577 56 607 ?600 527 609 17 18 -529 529 600
 527 539 15 605 8 0 570 527 0 13 539 3 0 0 0 0 0 0 21 527 17 570 0 605 559 559 5
45 568 610 0 0 +17 559 0 605 570 570 555 554 560 0 568 +17 568 0 567 573 561 555
 570 610 0 0 -16 610 22 611 ?570 585 532 592 0 0 3 81 1 611 176 65 610 0 0 612 6
13 614 16 585 18 615 ?616 578 610 617 0 0 3 16 532 82 582 ?618 610 560 19 0 0 3
 31 592 27 0 610 617 586 0 +0 0 .15 0 0 1 1 0 0 .05 31 617 24 0 585 619 592 0 +0
 0 .03 0 0 1 1 0 0 .05 30 619 155 0 560 576 617 0 +0 0 .15 1 0 0 16 560 91 620 ?
559 532 551 619 0 0 3 31 576 156 0 551 621 619 0 +0 0 .15 0 -1 0 0 0 -1 .0775 31
 621 157 0 575 0 576 0 +-520417042793042e-32 0 .13 0 -1 0 0 0 -1 .01411215060234
308 16 575 88 612 ?622 551 0 621 0 0 3 81 1 612 175 65 575 0 0 574 611 623 17 62
2 0 601 622 622 0 624 575 0 0 +15 601 119 0 622 596 625 17 624 0 626 624 624 0 6
22 575 0 0 -15 626 128 0 624 566 548 14 566 145 627 ?529 572 626 17 593 +0 0 529
 572 539 81 1 627 197 190 566 628 0 595 629 630 14 529 9 629 ?0 566 631 17 18 -5
77 577 0 566 539 81 1 629 198 190 529 632 0 627 0 633 15 631 60 0 618 529 0 17 6
18 0 631 618 618 0 634 532 0 0 +17 634 0 625 634 634 0 618 532 0 0 -15 625 120 0
 634 596 0 81 1 632 181 65 529 0 629 606 556 635 83 3 633 .647058823529412 .6470
58823529412 .647058823529412 81 1 606 180 65 527 0 604 636 632 637 81 1 556 182
 65 577 0 607 632 553 638 82 3 635 13 4 2 81 1 607 193 190 577 556 0 604 602 639
 82 3 638 13 5 2 81 1 602 194 190 600 640 0 607 599 641 83 3 639 .64705882352941
2 .647058823529412 .647058823529412 81 1 640 32 65 600 0 602 615 581 642 81 1 59
9 195 190 596 636 0 602 595 643 83 3 641 .647058823529412 .647058823529412 .6470
58823529412 81 1 636 179 65 596 0 599 628 606 644 81 1 595 196 190 572 613 0 599
 627 645 83 3 643 .647058823529412 .647058823529412 .647058823529412 81 1 613 17
7 65 572 0 595 611 628 646 83 3 645 .647058823529412 .647058823529412 .647058823
529412 81 1 628 178 65 566 0 627 613 636 647 82 3 646 13 0 2 82 3 647 13 1 2 82
 3 644 13 2 2 81 1 615 29 65 585 0 0 0 640 648 81 1 581 34 65 3 0 649 640 579 65
0 82 3 642 8 1 2 81 1 649 189 226 3 581 524 0 0 651 82 3 650 8 0 3 81 1 524 190
 228 3 649 14 0 0 652 98 6 651 80 97 114 116 32 50 84 6 652 Part 282 3 648 8 0 1
 82 3 637 13 3 2 83 3 630 .647058823529412 .647058823529412 .647058823529412 81
 1 574 174 65 551 0 0 620 612 653 82 3 623 13 4 1 81 1 620 173 65 560 0 0 582 57
4 654 82 3 653 13 3 1 81 1 582 172 65 532 0 0 579 620 655 82 3 654 13 2 1 82 3 6
55 13 1 1 17 616 0 609 616 616 0 656 585 0 0 +15 609 11 0 616 577 567 17 656 0 6
03 656 656 0 616 585 0 0 -15 603 17 0 656 600 0 82 3 614 13 5 1 83 3 608 .647058
823529412 .647058823529412 .647058823529412 81 1 584 188 65 578 0 0 540 0 657 17
 549 0 548 554 544 555 573 578 0 559 +81 1 540 187 65 22 0 0 543 584 658 82 3 65
7 13 7 1 82 3 658 13 6 1 82 3 583 13 0 1 81 1 557 184 65 555 0 0 553 546 659 82
 3 565 13 2 0 82 3 659 13 1 0 82 3 558 13 0 0 82 3 547 13 3 0 19 528 4 0 3 0 21
 17 0 S0 40 20 535 0 1 20 .000840283132530848 .350556449862407 ??-52041704279304
2e-32 -.05 .144112150602343 -.00456889047395854 -.0497908148139491 .143352079780
3258 -.00862083630219069 -.0492512048730874 .1411729126047796 -.0118079601407935
2 -.0485857188617543 .1377281868466442 -.0137162985272162 -.0480818380962322 .13
33190283722046 -.01404481230092662 -.0479869070417311 .1286230315708222 -.012876
8998548822 -.0483134085956201 .1242260719825626 -.0103500008238177 -.04891704695
6526 .12040675875576 -.0065857527983776 -.049564380961318 .1175187879313796 -.00
2025428087730215 -.0499589595674433 .1160339541857888 .002630827133523905 -.0499
307395157884 .1161352409607406 .00690511710558487 -.0495208981921588 .1176925976
590764 .01051127507387936 -.0488826461673388 .1205837432626094 .0130494146593283
 -.0482670982870206 .1246273310475966 .01409416872137234 -.0479724338350004 .129
2878183681804 .01357255616631784 -.0481226113081174 .1338650373523886 .011643844
3599623 -.0486253111920219 .1379733106765124 .0084047839675818 -.049288534229151
9 .1413363310238142 .004118534944150125 -.0498300879982548 .1434977948027456 -14
13500233993656e-32 -.05 .144112150602343 41 1 536 H?-1413500233993656e-32 -.05 .
144112150602343 204 80 537 4 4.71238898038469 .00588984939765691 0 .250311931395
7205 4.80389443606349 .00664992021967426 5.95348891194295 .2505211165817715 4.88
567159433304 .00882908739522037 5.62601317872015 .251060726522633 4.950800321916
49 .01227381315335584 5.29191384704061 .251726212533966 4.99027769365289 .016682
9716277954 4.94980242012366 .2522300932994885 4.99711680647279 .0213789684291777
 4.61466023613709 .2523250243539895 4.9728623648753 .02577592801743725 4.2908711
8873979 .2519985228001005 4.92089654110645 .0295952412442399 3.96491828523834 .2
513948844391945 4.8444878916438 .0324832120686203 3.627117387193625 .25074755043
44025 4.75290862903878 .0339680458142112 3.28561372124909 .250352971828277 4.659
74812926327 .03386675903925945 2.954072766023015 .250381191879932 4.573843840098
77 .03230940234092355 2.630302329879145 .2507910332035615 4.50058337038022 .0294
182567373906 2.301299674241335 .2514292852283815 4.448343143718395 .025374668952
4034 1.961362782803605 .2520448331087 4.426632459942455 .02071418163181955 1.621
28361937271 .25233949756072 4.437488533352055 .0161369626476114 1.29337123096123
4 .252189320087603 4.477354120406925 .01202868932348764 .970367746404503 .251686
6202036985 4.54349143971487 .00866566897618581 .6379759525551 .2510233971665685
 4.62992484935185 .00650420519725439 .2961533481964565 .2504818433974655 4.71238
898038469 .00588984939765691 6.28318530717959 .2503119313957205 141 531 580 660
 660 18 141 660 19 531 531 18 74 20 526 5 0 0 584 649 524 14 629 0 0 0 0 0 0 0 0
 0 0 0 0 0 0 0 83 3 525 .647058823529412 .647058823529412 .647058823529412 81 1
 6 156 46 2 661 0 0 0 662 70 7 0 4 T2 0 0 5 20 1 663 663 13 9 69 0 2 0 664 0 0 6
65 0 50 10 116 0 664 666 0 0 +-.03 0 0 0 0 1 1 0 0 31 11 120 0 13 667 0 0 +0 0 .
03 0 0 1 1 0 0 .05 19 12 79 0 2 665 0 668 0 V0 16 13 93 669 ?670 0 671 11 0 0 2
 81 1 669 138 65 13 0 0 672 673 674 17 670 0 675 670 670 0 676 13 0 0 +16 671 88
 672 ?677 13 678 667 0 0 2 81 1 672 137 65 671 0 0 679 669 680 17 677 0 681 677
 677 0 682 671 0 0 +16 678 83 679 ?683 671 684 685 0 0 2 31 667 119 0 671 685 11
 0 +0 0 .04 0 0 1 1 0 0 .05 31 685 118 0 678 686 667 0 +0 0 .04 0 0 1 1 0 0 .06
 31 686 117 0 684 0 685 0 +0 0 0 0 0 1 1 0 0 .06 16 684 81 687 ?688 678 0 686 0
 0 2 81 1 687 135 65 684 0 0 0 679 689 17 688 0 690 688 688 0 691 684 0 0 +15 69
0 85 0 688 692 0 17 691 0 693 691 691 0 688 684 0 0 -15 693 134 0 691 664 0 14 6
64 109 694 ?695 0 693 9 10 -0 0 695 0 668 81 1 694 157 190 664 673 0 0 696 697 1
4 695 101 696 ?698 664 675 9 666 -0 0 698 664 668 13 668 78 0 0 0 0 0 0 12 664 8
1 1 696 158 190 695 699 0 694 700 701 14 698 96 700 ?702 695 703 9 704 -0 0 702
 695 668 15 675 100 0 670 695 0 50 666 115 0 695 704 10 0 +-.025 0 .03 0 0 -1 -1
 0 0 51 704 114 0 698 705 666 0 +0 0 .015 0 0 1 .05 1 0 0 50 705 113 0 702 706 7
04 0 +-.055 0 .04 0 0 -1 -1 0 0 14 702 91 707 ?692 698 708 9 705 -0 0 692 698 66
8 51 706 112 0 692 0 705 0 -0 0 .015 0 0 1 .06 1 0 0 14 692 86 709 ?0 702 710 9
 706 -0 0 0 702 668 81 1 709 161 190 692 711 0 707 0 712 15 710 130 0 713 692 69
0 17 713 0 710 713 713 0 683 678 0 0 -17 683 0 714 683 683 0 713 678 0 0 +15 714
 90 0 683 702 0 81 1 711 140 65 692 0 709 673 715 716 81 1 707 160 190 702 715 0
 700 709 717 83 3 712 .615686274509804 .811764705882353 .929411764705882 81 1 71
5 141 65 702 0 707 711 718 719 81 1 700 159 190 698 718 0 696 707 720 83 3 717 .
615686274509804 .811764705882353 .929411764705882 81 1 718 142 65 698 0 700 715
 699 721 83 3 720 .615686274509804 .811764705882353 .929411764705882 81 1 699 14
3 65 695 0 696 718 722 723 82 3 721 6 3 2 81 1 722 144 65 2 0 724 699 0 725 82 3
 723 6 4 2 81 1 724 154 226 2 722 661 0 0 726 82 3 725 6 0 3 81 1 661 155 228 2
 724 6 0 0 727 98 6 726 80 97 114 116 32 49 84 6 727 Part 182 3 719 6 2 2 81 1 6
73 139 65 664 0 694 669 711 728 82 3 716 6 1 2 82 3 728 6 0 2 15 708 131 0 682 7
02 714 17 682 0 708 682 682 0 677 671 0 0 -15 703 132 0 676 698 681 17 676 0 703
 676 676 0 670 13 0 0 -15 681 95 0 677 698 0 83 3 701 .615686274509804 .81176470
5882353 .929411764705882 83 3 697 .615686274509804 .811764705882353 .92941176470
5882 81 1 679 136 65 678 0 0 687 672 729 82 3 689 6 0 1 82 3 729 6 1 1 82 3 680
 6 2 1 82 3 674 6 3 1 19 665 68 0 2 0 12 9 0 S0 74 20 663 5 0 0 722 724 661 6 70
9 0 0 0 0 0 0 0 0 0 0 0 0 0 0 0 83 3 662 .615686274509804 .811764705882353 .9294
11764705882 1 0 
